<svg viewBox="0 0 1024 1024" xmlns="http://www.w3.org/2000/svg">
<defs>
<linearGradient id="g0" x1="0" y1="1" x2="0" y2="0"><stop offset="0" stop-color="#29752e" stop-opacity="0.65"/><stop offset="1" stop-color="#29752e" stop-opacity="1"/></linearGradient>
<linearGradient id="g1" x1="0" y1="1" x2="0" y2="0"><stop offset="0" stop-color="#388c38" stop-opacity="0.65"/><stop offset="1" stop-color="#388c38" stop-opacity="1"/></linearGradient>
<linearGradient id="g2" x1="0" y1="1" x2="0" y2="0"><stop offset="0" stop-color="#4ca342" stop-opacity="0.65"/><stop offset="1" stop-color="#4ca342" stop-opacity="1"/></linearGradient>
<linearGradient id="g3" x1="0" y1="1" x2="0" y2="0"><stop offset="0" stop-color="#66b84c" stop-opacity="0.65"/><stop offset="1" stop-color="#66b84c" stop-opacity="1"/></linearGradient>
<linearGradient id="g4" x1="0" y1="1" x2="0" y2="0"><stop offset="0" stop-color="#80cc5c" stop-opacity="0.65"/><stop offset="1" stop-color="#80cc5c" stop-opacity="1"/></linearGradient>
</defs>
<path d="M 144.2 1024.0 Q 136.5 936.6 137.1 878.3 Q 152.9 951.2 160.6 1024.0 Z" fill="url(#g0)"/>
<path d="M 709.2 1024.0 Q 703.2 935.6 705.0 876.6 Q 718.8 950.3 724.8 1024.0 Z" fill="url(#g0)"/>
<path d="M 424.0 1024.0 Q 429.1 932.9 442.7 872.2 Q 446.1 948.1 440.9 1024.0 Z" fill="url(#g0)"/>
<path d="M 68.2 1024.0 Q 57.3 929.6 54.3 866.7 Q 73.1 945.3 84.0 1024.0 Z" fill="url(#g0)"/>
<path d="M 476.2 1024.0 Q 468.3 925.2 468.0 859.3 Q 483.4 941.7 491.3 1024.0 Z" fill="url(#g0)"/>
<path d="M 829.5 1024.0 Q 841.1 924.3 861.5 857.9 Q 858.9 940.9 847.3 1024.0 Z" fill="url(#g0)"/>
<path d="M 839.6 1024.0 Q 834.0 922.9 837.5 855.4 Q 852.2 939.7 857.7 1024.0 Z" fill="url(#g0)"/>
<path d="M 581.8 1024.0 Q 588.6 922.5 603.2 854.9 Q 604.4 939.4 597.7 1024.0 Z" fill="url(#g0)"/>
<path d="M 911.9 1024.0 Q 913.2 922.0 922.9 854.1 Q 930.0 939.0 928.7 1024.0 Z" fill="url(#g0)"/>
<path d="M 902.0 1024.0 Q 888.9 921.3 884.4 852.9 Q 906.1 938.4 919.3 1024.0 Z" fill="url(#g0)"/>
<path d="M 898.6 1024.0 Q 895.5 920.7 901.3 851.9 Q 913.3 937.9 916.5 1024.0 Z" fill="url(#g0)"/>
<path d="M 788.3 1024.0 Q 775.1 919.3 771.2 849.6 Q 793.8 936.8 807.0 1024.0 Z" fill="url(#g0)"/>
<path d="M 109.6 1024.0 Q 103.7 919.3 105.8 849.4 Q 119.6 936.7 125.4 1024.0 Z" fill="url(#g0)"/>
<path d="M 127.9 1024.0 Q 128.6 917.4 137.0 846.4 Q 144.1 935.2 143.4 1024.0 Z" fill="url(#g0)"/>
<path d="M 926.5 1024.0 Q 934.1 916.5 949.9 844.9 Q 950.7 934.4 943.1 1024.0 Z" fill="url(#g0)"/>
<path d="M 227.0 1024.0 Q 214.8 915.5 211.5 843.1 Q 232.5 933.6 244.6 1024.0 Z" fill="url(#g0)"/>
<path d="M 804.2 1024.0 Q 815.3 914.7 834.8 841.9 Q 832.2 932.9 821.1 1024.0 Z" fill="url(#g0)"/>
<path d="M 486.5 1024.0 Q 478.5 914.0 479.8 840.7 Q 497.3 932.3 505.4 1024.0 Z" fill="url(#g0)"/>
<path d="M 928.6 1024.0 Q 932.5 911.9 946.0 837.1 Q 951.8 930.6 948.0 1024.0 Z" fill="url(#g0)"/>
<path d="M 331.4 1024.0 Q 331.9 909.3 341.6 832.8 Q 350.4 928.4 349.9 1024.0 Z" fill="url(#g0)"/>
<path d="M 889.9 1024.0 Q 878.2 908.8 874.9 832.0 Q 895.1 928.0 906.8 1024.0 Z" fill="url(#g0)"/>
<path d="M 824.9 1024.0 Q 828.5 908.4 840.4 831.3 Q 845.1 927.7 841.5 1024.0 Z" fill="url(#g0)"/>
<path d="M -9.4 1024.0 Q -2.5 907.8 14.1 830.3 Q 16.8 927.2 9.9 1024.0 Z" fill="url(#g0)"/>
<path d="M 510.0 1024.0 Q 519.0 901.1 538.2 819.1 Q 539.4 921.6 530.4 1024.0 Z" fill="url(#g1)"/>
<path d="M 366.6 1024.0 Q 370.9 900.7 384.6 818.5 Q 389.8 921.2 385.6 1024.0 Z" fill="url(#g0)"/>
<path d="M 122.6 1024.0 Q 127.3 900.5 141.3 818.2 Q 145.7 921.1 141.0 1024.0 Z" fill="url(#g0)"/>
<path d="M 593.8 1024.0 Q 585.2 899.9 586.9 817.2 Q 605.7 920.6 614.3 1024.0 Z" fill="url(#g1)"/>
<path d="M 670.4 1024.0 Q 684.4 898.2 707.6 814.4 Q 702.6 919.2 688.6 1024.0 Z" fill="url(#g0)"/>
<path d="M 129.4 1024.0 Q 111.3 896.6 104.4 811.7 Q 133.7 917.8 151.9 1024.0 Z" fill="url(#g1)"/>
<path d="M 799.8 1024.0 Q 800.8 896.3 811.1 811.2 Q 819.5 917.6 818.5 1024.0 Z" fill="url(#g0)"/>
<path d="M 0.4 1024.0 Q -4.3 895.2 1.1 809.4 Q 15.7 916.7 20.4 1024.0 Z" fill="url(#g1)"/>
<path d="M 45.6 1024.0 Q 51.0 894.7 67.4 808.5 Q 73.1 916.3 67.7 1024.0 Z" fill="url(#g1)"/>
<path d="M 716.3 1024.0 Q 718.4 894.4 729.6 808.1 Q 736.7 916.0 734.6 1024.0 Z" fill="url(#g0)"/>
<path d="M 938.3 1024.0 Q 926.0 893.7 924.1 806.8 Q 946.7 915.4 959.0 1024.0 Z" fill="url(#g1)"/>
<path d="M 1017.3 1024.0 Q 1028.5 890.7 1050.8 801.8 Q 1050.7 912.9 1039.6 1024.0 Z" fill="url(#g1)"/>
<path d="M 901.3 1024.0 Q 902.1 890.1 913.2 800.8 Q 922.5 912.4 921.7 1024.0 Z" fill="url(#g1)"/>
<path d="M 1025.6 1024.0 Q 1038.6 889.9 1063.0 800.5 Q 1061.6 912.3 1048.6 1024.0 Z" fill="url(#g1)"/>
<path d="M 140.2 1024.0 Q 152.1 886.9 175.3 795.4 Q 174.7 909.7 162.7 1024.0 Z" fill="url(#g1)"/>
<path d="M 931.2 1024.0 Q 934.2 876.4 948.7 778.1 Q 957.0 901.0 954.0 1024.0 Z" fill="url(#g1)"/>
<path d="M -16.7 1024.0 Q -30.2 873.0 -32.3 772.3 Q -7.5 898.1 6.0 1024.0 Z" fill="url(#g1)"/>
<path d="M 643.2 1024.0 Q 628.1 872.8 624.8 772.0 Q 651.7 898.0 666.8 1024.0 Z" fill="url(#g1)"/>
<path d="M 161.3 1024.0 Q 158.7 871.7 169.4 770.2 Q 185.2 897.1 187.8 1024.0 Z" fill="url(#g2)"/>
<path d="M 703.3 1024.0 Q 720.2 868.9 748.7 765.6 Q 743.3 894.8 726.4 1024.0 Z" fill="url(#g1)"/>
<path d="M 1008.1 1024.0 Q 1009.3 868.5 1024.0 764.8 Q 1036.3 894.4 1035.1 1024.0 Z" fill="url(#g2)"/>
<path d="M 711.4 1024.0 Q 723.3 867.8 747.7 763.7 Q 748.3 893.9 736.4 1024.0 Z" fill="url(#g2)"/>
<path d="M 854.2 1024.0 Q 872.9 867.7 903.6 763.5 Q 896.7 893.7 877.9 1024.0 Z" fill="url(#g1)"/>
<path d="M 185.3 1024.0 Q 166.1 865.9 160.4 760.4 Q 193.1 892.2 212.4 1024.0 Z" fill="url(#g2)"/>
<path d="M 953.9 1024.0 Q 956.0 865.8 970.7 760.3 Q 981.0 892.2 978.9 1024.0 Z" fill="url(#g2)"/>
<path d="M 389.9 1024.0 Q 406.9 865.0 435.0 759.0 Q 429.2 891.5 412.2 1024.0 Z" fill="url(#g1)"/>
<path d="M 459.5 1024.0 Q 441.4 861.4 435.0 752.9 Q 464.9 888.5 483.0 1024.0 Z" fill="url(#g1)"/>
<path d="M 75.7 1024.0 Q 58.8 856.5 54.6 744.9 Q 84.1 884.4 101.0 1024.0 Z" fill="url(#g2)"/>
<path d="M 128.8 1024.0 Q 145.7 856.4 174.0 744.7 Q 168.6 884.3 151.7 1024.0 Z" fill="url(#g1)"/>
<path d="M 969.7 1024.0 Q 968.8 856.3 980.4 744.6 Q 993.8 884.3 994.7 1024.0 Z" fill="url(#g2)"/>
<path d="M 488.1 1024.0 Q 474.6 851.4 473.1 736.3 Q 498.8 880.2 512.3 1024.0 Z" fill="url(#g2)"/>
<path d="M 506.5 1024.0 Q 487.4 851.2 481.6 736.0 Q 514.2 880.0 533.3 1024.0 Z" fill="url(#g2)"/>
<path d="M 335.2 1024.0 Q 323.8 851.2 326.6 736.0 Q 352.3 880.0 363.7 1024.0 Z" fill="url(#g3)"/>
<path d="M 411.7 1024.0 Q 389.3 848.5 380.8 731.5 Q 417.2 877.7 439.7 1024.0 Z" fill="url(#g2)"/>
<path d="M 205.1 1024.0 Q 190.3 846.9 187.7 728.8 Q 214.7 876.4 229.4 1024.0 Z" fill="url(#g2)"/>
<path d="M 713.9 1024.0 Q 695.8 846.0 690.5 727.3 Q 721.3 875.7 739.3 1024.0 Z" fill="url(#g2)"/>
<path d="M 148.7 1024.0 Q 157.3 845.5 177.9 726.4 Q 181.1 875.2 172.5 1024.0 Z" fill="url(#g2)"/>
<path d="M 319.0 1024.0 Q 297.8 844.2 290.2 724.3 Q 325.0 874.2 346.1 1024.0 Z" fill="url(#g2)"/>
<path d="M 533.8 1024.0 Q 533.8 843.2 546.0 722.7 Q 558.1 873.3 558.0 1024.0 Z" fill="url(#g2)"/>
<path d="M 242.8 1024.0 Q 255.3 843.2 279.9 722.7 Q 279.6 873.3 267.1 1024.0 Z" fill="url(#g2)"/>
<path d="M 192.0 1024.0 Q 204.9 843.0 230.1 722.3 Q 229.5 873.1 216.5 1024.0 Z" fill="url(#g2)"/>
<path d="M 23.8 1024.0 Q 31.3 841.2 52.0 719.3 Q 57.7 871.6 50.2 1024.0 Z" fill="url(#g2)"/>
<path d="M 971.7 1024.0 Q 986.9 839.0 1016.1 715.7 Q 1014.7 869.9 999.4 1024.0 Z" fill="url(#g2)"/>
<path d="M 703.0 1024.0 Q 703.6 830.8 718.4 702.0 Q 732.0 863.0 731.5 1024.0 Z" fill="url(#g3)"/>
<path d="M 1014.2 1024.0 Q 994.0 828.5 988.1 698.1 Q 1022.7 861.1 1043.0 1024.0 Z" fill="url(#g3)"/>
<path d="M 437.9 1024.0 Q 456.1 825.2 488.0 692.7 Q 483.5 858.4 465.2 1024.0 Z" fill="url(#g2)"/>
<path d="M 562.6 1024.0 Q 545.3 825.1 541.6 692.4 Q 572.5 858.2 589.8 1024.0 Z" fill="url(#g2)"/>
<path d="M 89.7 1024.0 Q 113.9 825.0 153.5 692.3 Q 144.9 858.1 120.8 1024.0 Z" fill="url(#g3)"/>
<path d="M 588.1 1024.0 Q 579.1 824.1 585.1 690.9 Q 609.1 857.4 618.1 1024.0 Z" fill="url(#g3)"/>
<path d="M 111.9 1024.0 Q 126.9 815.5 155.6 676.6 Q 154.2 850.3 139.2 1024.0 Z" fill="url(#g2)"/>
<path d="M 804.2 1024.0 Q 787.8 809.4 787.1 666.3 Q 819.3 845.2 835.7 1024.0 Z" fill="url(#g3)"/>
<path d="M 516.1 1024.0 Q 507.3 808.6 514.1 665.0 Q 538.3 844.5 547.0 1024.0 Z" fill="url(#g3)"/>
<path d="M 269.7 1024.0 Q 290.9 804.5 330.3 658.2 Q 327.4 841.1 306.2 1024.0 Z" fill="url(#g4)"/>
<path d="M 387.6 1024.0 Q 391.2 802.3 409.2 654.6 Q 420.0 839.3 416.4 1024.0 Z" fill="url(#g3)"/>
<path d="M 595.4 1024.0 Q 606.2 800.2 634.2 650.9 Q 640.5 837.5 629.6 1024.0 Z" fill="url(#g4)"/>
<path d="M 268.0 1024.0 Q 283.2 795.9 313.1 643.8 Q 312.4 833.9 297.2 1024.0 Z" fill="url(#g3)"/>
<path d="M 814.4 1024.0 Q 822.7 794.2 847.7 641.1 Q 856.2 832.5 847.9 1024.0 Z" fill="url(#g4)"/>
<path d="M 240.8 1024.0 Q 262.5 793.1 299.5 639.2 Q 292.9 831.6 271.2 1024.0 Z" fill="url(#g3)"/>
<path d="M 203.1 1024.0 Q 186.8 783.7 188.5 623.6 Q 222.8 823.8 239.1 1024.0 Z" fill="url(#g4)"/>
<path d="M 1013.7 1024.0 Q 1039.3 777.3 1082.8 612.8 Q 1075.3 818.4 1049.8 1024.0 Z" fill="url(#g4)"/>
<path d="M 353.0 1024.0 Q 339.9 775.1 343.7 609.2 Q 373.9 816.6 387.0 1024.0 Z" fill="url(#g4)"/>
<path d="M 405.3 1024.0 Q 393.4 771.5 398.1 603.2 Q 426.5 813.6 438.3 1024.0 Z" fill="url(#g4)"/>
<path d="M 246.2 1024.0 Q 225.5 770.1 220.9 600.8 Q 257.8 812.4 278.5 1024.0 Z" fill="url(#g3)"/>
<path d="M 750.6 1024.0 Q 768.0 769.3 802.3 599.6 Q 801.7 811.8 784.3 1024.0 Z" fill="url(#g4)"/>
<path d="M 811.8 1024.0 Q 832.9 762.6 871.5 588.4 Q 867.7 806.2 846.6 1024.0 Z" fill="url(#g4)"/>
<path d="M 955.6 1024.0 Q 957.2 759.5 976.9 583.2 Q 993.5 803.6 992.0 1024.0 Z" fill="url(#g4)"/>
<path d="M 976.7 1024.0 Q 961.0 752.3 962.6 571.1 Q 995.5 797.5 1011.1 1024.0 Z" fill="url(#g4)"/>
</svg>
