<svg viewBox="0 0 1024 1024" xmlns="http://www.w3.org/2000/svg">
<defs>
<linearGradient id="g0" x1="0" y1="1" x2="0" y2="0"><stop offset="0" stop-color="#18461c"/><stop offset="1" stop-color="#29752e"/></linearGradient>
<linearGradient id="g1" x1="0" y1="1" x2="0" y2="0"><stop offset="0" stop-color="#225422"/><stop offset="1" stop-color="#388c38"/></linearGradient>
<linearGradient id="g2" x1="0" y1="1" x2="0" y2="0"><stop offset="0" stop-color="#2e6228"/><stop offset="1" stop-color="#4ca342"/></linearGradient>
<linearGradient id="g3" x1="0" y1="1" x2="0" y2="0"><stop offset="0" stop-color="#3d6e2e"/><stop offset="1" stop-color="#66b84c"/></linearGradient>
<linearGradient id="g4" x1="0" y1="1" x2="0" y2="0"><stop offset="0" stop-color="#4c7a37"/><stop offset="1" stop-color="#80cc5c"/></linearGradient>
</defs>
<path d="M 158.1 1024.0 Q 162.4 933.5 174.0 873.1 Q 179.8 867.9 185.7 873.1 Q 187.7 948.6 182.4 1024.0 Z" fill="url(#g0)"/>
<path d="M 934.8 1024.0 Q 923.2 932.1 916.4 870.8 Q 923.2 864.7 930.0 870.8 Q 948.8 947.4 963.0 1024.0 Z" fill="url(#g0)"/>
<path d="M 440.9 1024.0 Q 444.0 931.6 455.1 870.0 Q 461.9 863.9 468.7 870.0 Q 472.9 947.0 469.1 1024.0 Z" fill="url(#g0)"/>
<path d="M 28.6 1024.0 Q 29.3 930.9 37.6 868.9 Q 44.5 862.7 51.4 868.9 Q 58.2 946.5 57.3 1024.0 Z" fill="url(#g0)"/>
<path d="M 773.5 1024.0 Q 783.9 928.6 803.5 865.0 Q 809.9 859.2 816.3 865.0 Q 812.8 944.5 800.1 1024.0 Z" fill="url(#g0)"/>
<path d="M 29.5 1024.0 Q 20.2 927.8 16.0 863.6 Q 22.6 857.7 29.3 863.6 Q 45.7 943.8 57.1 1024.0 Z" fill="url(#g0)"/>
<path d="M 212.2 1024.0 Q 211.9 927.6 217.8 863.3 Q 223.8 857.9 229.8 863.3 Q 236.7 943.7 237.1 1024.0 Z" fill="url(#g0)"/>
<path d="M 925.1 1024.0 Q 930.3 923.6 943.5 856.7 Q 949.8 851.0 956.1 856.7 Q 957.7 940.3 951.3 1024.0 Z" fill="url(#g0)"/>
<path d="M 253.1 1024.0 Q 246.4 922.5 245.4 854.8 Q 252.0 848.9 258.6 854.8 Q 272.4 939.4 280.6 1024.0 Z" fill="url(#g0)"/>
<path d="M 253.7 1024.0 Q 259.8 921.4 274.1 853.0 Q 280.4 847.3 286.7 853.0 Q 287.4 938.5 279.9 1024.0 Z" fill="url(#g0)"/>
<path d="M 667.3 1024.0 Q 677.8 921.0 698.4 852.4 Q 705.7 845.9 712.9 852.4 Q 710.2 938.2 697.4 1024.0 Z" fill="url(#g1)"/>
<path d="M 685.9 1024.0 Q 680.4 921.0 682.0 852.3 Q 689.6 845.5 697.2 852.3 Q 710.9 938.2 717.5 1024.0 Z" fill="url(#g1)"/>
<path d="M 606.5 1024.0 Q 600.7 920.7 600.6 851.8 Q 607.0 846.0 613.4 851.8 Q 626.2 937.9 633.2 1024.0 Z" fill="url(#g0)"/>
<path d="M 903.3 1024.0 Q 914.2 920.2 934.4 851.0 Q 940.8 845.3 947.1 851.0 Q 943.0 937.5 929.7 1024.0 Z" fill="url(#g0)"/>
<path d="M 458.7 1024.0 Q 446.8 919.9 439.9 850.5 Q 447.0 844.1 454.1 850.5 Q 473.8 937.3 488.4 1024.0 Z" fill="url(#g0)"/>
<path d="M 869.3 1024.0 Q 877.4 917.8 894.5 847.0 Q 901.2 840.9 908.0 847.0 Q 907.2 935.5 897.4 1024.0 Z" fill="url(#g0)"/>
<path d="M 717.3 1024.0 Q 711.8 916.2 711.7 844.4 Q 717.7 838.9 723.7 844.4 Q 735.8 934.2 742.4 1024.0 Z" fill="url(#g0)"/>
<path d="M 10.8 1024.0 Q 15.1 913.7 27.4 840.2 Q 33.8 834.5 40.2 840.2 Q 42.8 932.1 37.5 1024.0 Z" fill="url(#g0)"/>
<path d="M 938.2 1024.0 Q 946.0 912.5 963.4 838.2 Q 970.6 831.8 977.8 838.2 Q 977.7 931.1 968.1 1024.0 Z" fill="url(#g0)"/>
<path d="M 647.9 1024.0 Q 657.1 912.4 676.3 838.0 Q 683.6 831.4 690.8 838.0 Q 689.5 931.0 678.2 1024.0 Z" fill="url(#g1)"/>
<path d="M 517.7 1024.0 Q 523.2 907.0 538.3 829.0 Q 546.0 822.0 553.7 829.0 Q 556.6 926.5 549.8 1024.0 Z" fill="url(#g1)"/>
<path d="M 241.1 1024.0 Q 234.5 907.0 233.6 829.0 Q 240.1 823.1 246.5 829.0 Q 260.1 926.5 268.1 1024.0 Z" fill="url(#g0)"/>
<path d="M 37.6 1024.0 Q 31.4 906.5 32.6 828.2 Q 40.6 821.0 48.7 828.2 Q 63.5 926.1 71.0 1024.0 Z" fill="url(#g1)"/>
<path d="M 208.1 1024.0 Q 197.3 905.6 191.8 826.7 Q 198.8 820.4 205.8 826.7 Q 224.2 925.3 237.4 1024.0 Z" fill="url(#g0)"/>
<path d="M 650.2 1024.0 Q 640.8 903.3 637.0 822.8 Q 644.2 816.4 651.3 822.8 Q 668.4 923.4 679.9 1024.0 Z" fill="url(#g0)"/>
<path d="M 213.5 1024.0 Q 224.5 900.0 247.7 817.4 Q 256.8 809.3 265.8 817.4 Q 264.6 920.7 251.2 1024.0 Z" fill="url(#g2)"/>
<path d="M 353.6 1024.0 Q 342.9 899.4 339.5 816.4 Q 348.5 808.3 357.5 816.4 Q 377.9 920.2 390.9 1024.0 Z" fill="url(#g2)"/>
<path d="M 276.2 1024.0 Q 278.8 891.4 290.3 803.0 Q 297.9 796.2 305.5 803.0 Q 311.1 913.5 307.9 1024.0 Z" fill="url(#g1)"/>
<path d="M 477.1 1024.0 Q 491.3 891.3 517.7 802.8 Q 526.1 795.2 534.6 802.8 Q 529.5 913.4 512.2 1024.0 Z" fill="url(#g1)"/>
<path d="M 401.6 1024.0 Q 392.1 889.6 390.3 800.1 Q 399.3 792.0 408.3 800.1 Q 427.6 912.0 439.2 1024.0 Z" fill="url(#g2)"/>
<path d="M 107.6 1024.0 Q 93.7 885.8 85.3 793.7 Q 93.3 786.5 101.2 793.7 Q 123.8 908.8 140.9 1024.0 Z" fill="url(#g1)"/>
<path d="M 889.9 1024.0 Q 902.1 884.4 925.9 791.4 Q 934.2 783.9 942.4 791.4 Q 939.3 907.7 924.5 1024.0 Z" fill="url(#g1)"/>
<path d="M 907.8 1024.0 Q 902.7 882.9 907.2 788.8 Q 917.1 779.9 926.9 788.8 Q 942.7 906.4 948.9 1024.0 Z" fill="url(#g2)"/>
<path d="M 456.6 1024.0 Q 470.7 877.1 497.7 779.2 Q 506.7 771.1 515.8 779.2 Q 511.4 901.6 494.2 1024.0 Z" fill="url(#g2)"/>
<path d="M 571.3 1024.0 Q 583.0 871.7 606.8 770.2 Q 615.5 762.3 624.3 770.2 Q 622.1 897.1 607.8 1024.0 Z" fill="url(#g2)"/>
<path d="M 505.1 1024.0 Q 494.1 869.1 490.8 765.8 Q 500.2 757.4 509.7 765.8 Q 530.9 894.9 544.3 1024.0 Z" fill="url(#g2)"/>
<path d="M 147.5 1024.0 Q 146.5 867.4 156.9 763.0 Q 167.6 753.4 178.3 763.0 Q 190.9 893.5 192.1 1024.0 Z" fill="url(#g3)"/>
<path d="M 256.3 1024.0 Q 254.8 866.7 263.1 761.9 Q 272.5 753.4 281.8 761.9 Q 293.4 892.9 295.2 1024.0 Z" fill="url(#g2)"/>
<path d="M 759.9 1024.0 Q 746.2 866.6 739.1 761.7 Q 748.0 753.7 757.0 761.7 Q 780.3 892.9 797.1 1024.0 Z" fill="url(#g2)"/>
<path d="M 642.8 1024.0 Q 643.4 866.5 653.9 761.4 Q 662.8 753.4 671.7 761.4 Q 680.8 892.7 680.0 1024.0 Z" fill="url(#g2)"/>
<path d="M 1024.6 1024.0 Q 1018.4 865.9 1020.8 760.5 Q 1030.1 752.2 1039.3 760.5 Q 1055.5 892.3 1063.0 1024.0 Z" fill="url(#g2)"/>
<path d="M 606.6 1024.0 Q 609.7 864.8 624.7 758.7 Q 635.0 749.5 645.2 758.7 Q 653.2 891.4 649.3 1024.0 Z" fill="url(#g3)"/>
<path d="M 670.0 1024.0 Q 664.3 864.2 667.1 757.6 Q 676.0 749.6 685.0 757.6 Q 700.3 890.8 707.3 1024.0 Z" fill="url(#g2)"/>
<path d="M 851.8 1024.0 Q 844.7 859.2 847.1 749.4 Q 857.4 740.1 867.7 749.4 Q 885.9 886.7 894.5 1024.0 Z" fill="url(#g3)"/>
<path d="M 432.1 1024.0 Q 434.6 856.3 450.2 744.5 Q 461.7 734.2 473.2 744.5 Q 483.1 884.3 480.0 1024.0 Z" fill="url(#g3)"/>
<path d="M 562.1 1024.0 Q 571.6 856.0 596.3 744.1 Q 608.4 733.2 620.4 744.1 Q 623.9 884.0 612.3 1024.0 Z" fill="url(#g4)"/>
<path d="M 575.3 1024.0 Q 585.0 852.6 608.8 738.3 Q 619.8 728.4 630.9 738.3 Q 633.0 881.1 621.1 1024.0 Z" fill="url(#g3)"/>
<path d="M 978.8 1024.0 Q 990.6 850.7 1016.3 735.2 Q 1026.5 725.9 1036.8 735.2 Q 1036.2 879.6 1021.7 1024.0 Z" fill="url(#g3)"/>
<path d="M 34.1 1024.0 Q 25.4 850.7 27.0 735.1 Q 38.3 724.9 49.7 735.1 Q 70.6 879.5 81.3 1024.0 Z" fill="url(#g3)"/>
<path d="M 937.3 1024.0 Q 941.9 850.3 959.3 734.6 Q 970.1 724.9 980.9 734.6 Q 987.9 879.3 982.3 1024.0 Z" fill="url(#g3)"/>
<path d="M 257.6 1024.0 Q 261.7 850.3 277.4 734.4 Q 287.2 725.6 297.0 734.4 Q 303.4 879.2 298.3 1024.0 Z" fill="url(#g2)"/>
<path d="M 801.7 1024.0 Q 797.6 847.7 803.7 730.1 Q 813.9 721.0 824.1 730.1 Q 839.2 877.1 844.1 1024.0 Z" fill="url(#g3)"/>
<path d="M 123.0 1024.0 Q 111.4 847.6 107.8 730.0 Q 117.7 721.0 127.6 730.0 Q 150.0 877.0 164.3 1024.0 Z" fill="url(#g2)"/>
<path d="M 367.6 1024.0 Q 382.4 847.5 412.6 729.8 Q 423.9 719.7 435.2 729.8 Q 432.7 876.9 414.6 1024.0 Z" fill="url(#g3)"/>
<path d="M 281.2 1024.0 Q 265.6 843.9 257.6 723.8 Q 267.9 714.5 278.2 723.8 Q 305.0 873.9 324.1 1024.0 Z" fill="url(#g3)"/>
<path d="M 240.4 1024.0 Q 217.7 841.7 203.3 720.1 Q 215.7 709.0 228.0 720.1 Q 264.2 872.1 292.0 1024.0 Z" fill="url(#g4)"/>
<path d="M 291.4 1024.0 Q 295.2 835.2 313.0 709.3 Q 325.1 698.4 337.1 709.3 Q 346.4 866.6 341.8 1024.0 Z" fill="url(#g4)"/>
<path d="M 930.9 1024.0 Q 943.1 834.6 970.1 708.4 Q 981.1 698.4 992.2 708.4 Q 992.0 866.2 977.0 1024.0 Z" fill="url(#g3)"/>
<path d="M 377.1 1024.0 Q 399.6 826.6 440.4 694.9 Q 452.8 683.9 465.1 694.9 Q 455.9 859.5 428.4 1024.0 Z" fill="url(#g4)"/>
<path d="M 634.5 1024.0 Q 615.1 825.7 603.0 693.5 Q 613.8 683.8 624.6 693.5 Q 655.8 858.8 679.5 1024.0 Z" fill="url(#g3)"/>
<path d="M 137.0 1024.0 Q 127.8 825.0 128.5 692.3 Q 139.3 682.5 150.2 692.3 Q 171.1 858.2 182.3 1024.0 Z" fill="url(#g3)"/>
<path d="M 64.9 1024.0 Q 61.3 822.1 70.0 687.4 Q 82.1 676.5 94.2 687.4 Q 110.9 855.7 115.3 1024.0 Z" fill="url(#g4)"/>
<path d="M 968.3 1024.0 Q 955.6 821.7 952.1 686.8 Q 963.2 676.8 974.3 686.8 Q 999.0 855.4 1014.5 1024.0 Z" fill="url(#g3)"/>
<path d="M -13.7 1024.0 Q -34.5 819.1 -46.1 682.5 Q -33.2 671.0 -20.4 682.5 Q 14.3 853.3 39.8 1024.0 Z" fill="url(#g4)"/>
<path d="M 575.2 1024.0 Q 584.6 806.6 609.9 661.6 Q 622.7 650.1 635.5 661.6 Q 640.1 842.8 628.6 1024.0 Z" fill="url(#g4)"/>
<path d="M 156.0 1024.0 Q 144.3 806.0 143.3 660.7 Q 155.6 649.6 167.9 660.7 Q 193.0 842.3 207.3 1024.0 Z" fill="url(#g4)"/>
<path d="M 895.3 1024.0 Q 885.8 798.7 887.9 648.5 Q 900.7 637.0 913.4 648.5 Q 936.8 836.2 948.4 1024.0 Z" fill="url(#g4)"/>
<path d="M 176.5 1024.0 Q 152.4 797.7 136.6 646.8 Q 149.3 635.4 162.0 646.8 Q 199.8 835.4 229.2 1024.0 Z" fill="url(#g4)"/>
<path d="M 608.3 1024.0 Q 615.9 787.2 639.0 629.3 Q 651.8 617.7 664.7 629.3 Q 671.0 826.6 661.8 1024.0 Z" fill="url(#g4)"/>
<path d="M 706.3 1024.0 Q 723.2 783.1 757.7 622.5 Q 770.7 610.8 783.6 622.5 Q 780.8 823.2 760.3 1024.0 Z" fill="url(#g4)"/>
</svg>
