<svg viewBox="0 0 1024 1024" xmlns="http://www.w3.org/2000/svg">
  <g transform="translate(468.0,202.0) scale(0.18078,-0.18078) translate(-657.219,-721.500)">
    <path d="M656.3353271484375 -25.2667236328125Q480.70111083984375 -25.2667236328125 350.80059814453125 25.450042724609375Q220.90008544921875 76.16680908203125 146.966552734375 172.18374633789062Q73.03302001953125 268.20068359375 64.6663818359375 403.23455810546875L63.6663818359375 420.4013671875H376.67236328125L378.67236328125 409.56817626953125Q388.4056396484375 358.4691162109375 426.90521240234375 320.8531188964844Q465.40478515625 283.23712158203125 526.2206115722656 262.33746337890625Q587.0364379882812 241.43780517578125 663.1685180664062 241.43780517578125Q741.8340454101562 241.43780517578125 798.5165100097656 262.3874206542969Q855.198974609375 283.3370361328125 886.2485046386719 321.23626708984375Q917.2980346679688 359.135498046875 917.2980346679688 409.0677490234375V410.0677490234375Q917.2980346679688 477.1998291015625 862.065185546875 514.5656127929688Q806.8323364257812 551.931396484375 676.1998291015625 577.9644165039062L525.7002563476562 607.26416015625Q383.43353271484375 635.0973510742188 286.86663818359375 690.1807556152344Q190.29974365234375 745.26416015625 141.49957275390625 827.8810119628906Q92.69940185546875 910.4978637695312 92.69940185546875 1019.931396484375V1020.931396484375Q93.0660400390625 1156.3988037109375 165.34970092773438 1256.7159118652344Q237.63336181640625 1357.0330200195312 364.4839172363281 1412.6498718261719Q491.33447265625 1468.2667236328125 653.9017944335938 1468.2667236328125Q827.8366088867188 1468.2667236328125 952.13720703125 1415.5499572753906Q1076.4378051757812 1362.8331909179688 1145.1545715332031 1266.8162536621094Q1213.871337890625 1170.79931640625 1220.6046142578125 1042.0321655273438L1221.6046142578125 1022.5986328125H908.5986328125L907.2319946289062 1034.065185546875Q900.66552734375 1086.5308837890625 867.4826354980469 1123.6468811035156Q834.2997436523438 1160.7628784179688 780.0004272460938 1181.1625366210938Q725.7011108398438 1201.5621948242188 655.2354125976562 1201.5621948242188Q583.3031616210938 1201.5621948242188 531.8874206542969 1181.1125793457031Q480.4716796875 1160.6629638671875 453.3222351074219 1124.8136901855469Q426.17279052734375 1088.9644165039062 426.17279052734375 1042.3988037109375V1041.3988037109375Q426.17279052734375 999.4995727539062 450.60589599609375 968.7502136230469Q475.03900146484375 938.0008544921875 526.2218933105469 916.3179626464844Q577.40478515625 894.6350708007812 657.4708251953125 878.7019653320312L807.9703979492188 849.4022216796875Q960.4039306640625 819.9356689453125 1058.2875061035156 766.9356689453125Q1156.1710815429688 713.9356689453125 1203.4712524414062 632.9022216796875Q1250.7714233398438 551.8687744140625 1250.7714233398438 437.43524169921875V436.43524169921875Q1250.7714233398438 295.1346435546875 1179.9378051757812 191.31753540039062Q1109.1041870117188 87.50042724609375 975.9869079589844 31.116851806640625Q842.86962890625 -25.2667236328125 656.3353271484375 -25.2667236328125Z" fill="#f5f7f4"/>
  </g>
</svg>
